#!OML:ASF E:/inclinewalkrobotboard/Project1/Captureday1/Session1/subject1.ASF
:FULLY-SPECIFIED
:DEGREES
1
root 0 0 0 -1.9324039651363862 -3.307949310468128 -4.0295660113023954
lowerback 10.111882646606844 1.1307384516108423 2.162282565428989
upperback 0.14857417385882582 1.8200985370754252 1.3991892455367738
thorax -5.444550280990875 0.8539503708936165 -0.015366631110760254
lowerneck -14.899354315530323 -3.0129053744088883 -1.2588304597510354
upperneck 17.522532568240713 -4.01732584659394 1.1632241294700056
head 8.070090749568545 -1.9043362492090943 0.14667947743069146
rclavicle -5.015285055008177E-16 -2.6306319375100737E-16
rhumerus -24.022131067049934 -12.093565480963171 -72.16236548707653
rradius 45.904502046931846
rwrist -2.7722815992384344
rhand -15.312203762847508 4.795512441015234
rfingers 7.125019999999941
rthumb 10.874969894995465 -24.726600523771708
lclavicle -8.329723409474606E-16 -4.459034122406381E-16
lhumerus -38.37342825805006 0.2895603628247565 83.18943124443244
lradius 36.291962357266456
lwrist 3.1923372748334957
lhand -20.7864335306735 5.010861435918622
lfingers 7.1250199999999095
lthumb 5.50087106053176 34.66194101157677
rfemur -8.893109993101497 3.0767883554170465 17.543852276166817
rtibia 28.585703827557808
rfoot -4.056473592079628 -4.005051303010483
rtoes 3.0643322844200354
lfemur -4.364434759340186 -3.360890436835729 -18.283075144769192
ltibia 25.060143108604155
lfoot -14.959217254334893 2.961747307283222
ltoes -20.864793557061034
2
root 0 0 0 -1.9116236133292195 -3.526933485035352 -4.375379060483831
lowerback 10.11215011146672 1.2764754205825195 2.533166087492617
upperback 0.1355357953547704 2.059088076800655 1.4030053597274268
thorax -5.459549191628596 0.9627557511737505 -0.2545207744593899
lowerneck -14.89413891493868 -3.0532750204456534 -1.232178162623252
upperneck 17.485948643282345 -4.087066744754128 1.1894744622896605
head 8.062469486368956 -1.9327579095251561 0.1435591854271726
rclavicle -4.960387076511778E-16 -2.6012219366002013E-16
rhumerus -23.932506564987 -12.010131627774474 -72.07304526251879
rradius 46.17425029186708
rwrist -2.872831172840634
rhand -15.277949551939475 4.553202883083255
rfingers 7.125019999999939
rthumb 10.907246154244481 -24.965236154334043
lclavicle -8.3176964949387E-16 -4.4102525213444955E-16
lhumerus -38.40938963658485 0.28605295141152337 83.18985201287532
lradius 36.356041296166275
lwrist 3.180241068735249
lhand -20.74872241519906 4.892814272452798
lfingers 7.125019999999909
lthumb 5.537095804537948 34.53643191584183
rfemur -8.866127734572306 3.121062613976755 17.627491503786963
rtibia 28.42387492212768
rfoot -4.211147765828059 -4.040778089820567
rtoes 2.9870691661667323
lfemur -4.173177317830268 -3.3952586024355704 -18.337919558851222
ltibia 24.831943470918254
lfoot -15.110357037629086 3.0406377064974928
ltoes -21.032299259583354
3
root 0 0 0 -1.8880272524821833 -3.7624775179838177 -4.747854408376714
lowerback 10.113577987765474 1.433809526259988 2.931812038144732
upperback 0.1218934047352454 2.316856349624467 1.4064622648430434
thorax -5.474911420042802 1.0801059355491973 -0.5123141735868153
lowerneck -14.883070004900375 -3.096314793574704 -1.2020799000076874
upperneck 17.443363824154627 -4.1619705054346285 1.218858213871843
head 8.053109779454246 -1.9631148856213576 0.1405228267126069
rclavicle -4.876708165611198E-16 -2.574139949522862E-16
rhumerus -23.793711926320505 -11.868522476032929 -71.92722328151189
rradius 46.61499187796256
rwrist -3.036497443070603
rhand -15.220262512580565 4.148279365601667
rfingers 7.125019999999936
rthumb 10.962547537509549 -25.36153523191727
lclavicle -8.349656992221655E-16 -4.3695097186496007E-16
lhumerus -38.44286983150485 0.28335119288494276 83.19035177325668
lradius 36.413072314146156
lwrist 3.1688634037187144
lhand -20.7138264042049 4.784667646635045
lfingers 7.125019999999908
lthumb 5.569984775209983 34.422032394652234
rfemur -8.78993417108926 3.1852997285922138 17.727634071878846
rtibia 28.11603417924048
rfoot -4.442217461209831 -4.08252106878331
rtoes 2.8606007145648618
lfemur -4.006271752050607 -3.4235426110458036 -18.390454278410473
ltibia 24.642457307993897
lfoot -15.232543625260512 3.100863628367038
ltoes -21.157537928416765
4
root 0 0 0 -1.8652086533332404 -3.9883908417493075 -5.105460623510867
lowerback 10.115658763938974 1.5850300500865184 3.3138820183172246
upperback 0.10933388587918474 2.5646718956176335 1.4093139670774724
thorax -5.488984936508192 1.1928980697428568 -0.7598049047005822
lowerneck -14.868887011281368 -3.1372946525525425 -1.1723446491661256
upperneck 17.4029588787148 -4.233642173527743 1.247393276597025
head 8.043749093249001 -1.9921030833771611 0.13768324580564176
rclavicle -4.733816740582066E-16 -2.515144893089435E-16
rhumerus -23.592271748414333 -11.6539705017714 -71.71120789731447
rradius 47.27346591020193
rwrist -3.279366016381303
rhand -15.132914082706865 3.536449749291897
rfingers 7.1250199999999335
rthumb 11.04693000745782 -25.96028534267693
lclavicle -8.372368046674668E-16 -4.335151754782907E-16
lhumerus -38.4808704703048 0.2808817479954359 83.1916045571423
lradius 36.47656036439188
lwrist 3.1555034418454815
lhand -20.67380265311552 4.661135772741195
lfingers 7.125019999999907
lthumb 5.607770186315039 34.29224151548847
rfemur -8.675280495529181 3.245441977837916 17.79519701563533
rtibia 27.73562800135759
rfoot -4.669925509185029 -4.111829567662779
rtoes 2.721906386285212
lfemur -3.8735152600433307 -3.4472619218173355 -18.427991667998313
ltibia 24.486397195833195
lfoot -15.336679155099834 3.1551442553594864
ltoes -21.276560060863673
5
root 0 0 0 -1.8444415219443075 -4.166802830030268 -5.390077738277737
lowerback 10.117116003188373 1.7063827818268313 3.614989143268057
upperback 0.09868213923034092 2.7631693802899644 1.4094819267815863
thorax -5.50072987189019 1.2831538127830813 -0.957487091087247
lowerneck -14.845587888237198 -3.1693087510181353 -1.1453661633507968
upperneck 17.360236484818802 -4.290876534675839 1.272764290025902
head 8.03139628583621 -2.0150286237112605 0.1361172533474039
rclavicle -4.531553508905935E-16 -2.4233865668926916E-16
rhumerus -23.322006083453125 -11.36099120110817 -71.41893761323392
rradius 48.167600286591394
rwrist -3.6081494833019097
rhand -15.013754943263692 2.7023669617212107
rfingers 7.125019999999928
rthumb 11.162387921863745 -26.77628176438743
lclavicle -8.381249840794893E-16 -4.298689736751936E-16
lhumerus -38.52912903351275 0.27802226972015287 83.19408204619077
lradius 36.556423812829564
lwrist 3.137882698097821
lhand -20.622109925751957 4.502026368716608
lfingers 7.125019999999905
lthumb 5.656691625942087 34.12603691612169
rfemur -8.54772364424812 3.2659219443315566 17.75920226802113
rtibia 27.40220411320564
rfoot -4.773891964434819 -4.10267388102545
rtoes 2.6279962646371002
lfemur -3.7529882076750596 -3.4695502467255697 -18.462860985038553
ltibia 24.33877797972514
lfoot -15.432696974192826 3.2057601921288956
ltoes -21.38265835126746
6
root 0 0 0 -1.8282125475995157 -4.271091317609807 -5.558620116745944
lowerback 10.117628804262779 1.7804027645049583 3.7896104413871465
upperback 0.0909216112081292 2.8834654987088033 1.406300957486195
thorax -5.508997196318521 1.3377707678938768 -1.0764171922955732
lowerneck -14.81515777073309 -3.187992805445503 -1.1249925565240888
upperneck 17.316972518550998 -4.326040793204674 1.2924175354436285
head 8.016775069776234 -2.0287663196062966 0.13643219278902982
rclavicle -4.2841847040500774E-16 -2.3006903514295475E-16
rhumerus -22.9992683825551 -11.007310332800742 -71.06797082216093
rradius 49.24372320187456
rwrist -4.002964654386572
rhand -14.869977104451063 1.6960935105920072
rfingers 7.125019999999923
rthumb 11.301997522141917 -27.76072871992662
lclavicle -8.375129650423882E-16 -4.260612815861598E-16
lhumerus -38.58256228470671 0.27493973304155483 83.19743789637566
lradius 36.64462152636074
lwrist 3.1179401317704927
lhand -20.56414675172089 4.323825999295632
lfingers 7.125019999999904
lthumb 5.71163341372536 33.940550771444414
rfemur -8.47168797417704 3.2174773071285254 17.57943059199567
rtibia 27.2788542439029
rfoot -4.650813855507513 -4.04490188396552
rtoes 2.635993392219035
lfemur -3.581215052815031 -3.499654143804323 -18.526895959693764
ltibia 24.128846510121242
lfoot -15.553660437132898 3.2629530644510965
ltoes -21.472701350375964
7
root 0 0 0 -1.817734641467549 -4.283298651519441 -5.5817881475957805
lowerback 10.116947068631095 1.7957714378859055 3.8069270553590457
upperback 0.08634510675747759 2.9066400981187392 1.3989574410722065
thorax -5.513532470183 1.3482196714250856 -1.0975783686706764
lowerneck -14.778350171027991 -3.1907817212561413 -1.1138374619319649
upperneck 17.271131440416237 -4.334737392130168 1.3055859059991168
head 7.999661120589016 -2.031473453280358 0.13931128437670554
rclavicle -4.015086354481953E-16 -2.1564820427588263E-16
rhumerus -22.650726633351386 -10.62292068409775 -70.68742957374256
rradius 50.412078354565296
rwrist -4.430694889657229
rhand -14.71365885506795 0.6022121223493464
rfingers 7.125019999999917
rthumb 11.45397600077182 -28.830955735218478
lclavicle -8.35353070022224E-16 -4.218614531202553E-16
lhumerus -38.63111152915578 0.27126584319674374 83.20072054985994
lradius 36.72704532815373
lwrist 3.09986546591593
lhand -20.510471834202107 4.15867610776588
lfingers 7.125019999999902
lthumb 5.762575809440202 33.7685227833513
rfemur -8.5220473533351 3.0900736951886776 17.260889601178164
rtibia 27.49010483587488
rfoot -4.261836973657655 -3.9492532976508024
rtoes 2.7743252682186332
lfemur -3.2640121860232996 -3.5504069991323113 -18.665570800974294
ltibia 23.759177076668088
lfoot -15.746809802891384 3.3404939170165653
ltoes -21.54748715545245
8
root 0 0 0 -1.8073906218785538 -4.027492587104615 -5.193239102400385
lowerback 10.108602328592312 1.6512006169868108 3.365776868463975
upperback 0.08367211993002938 2.661711943120051 1.3693465171524526
thorax -5.514916896776768 1.236790403744886 -0.8475966361540723
lowerneck -14.670973135218405 -3.147968995871651 -1.1142445868475759
upperneck 17.14570225376088 -4.27315387265333 1.3177798963212628
head 7.94773486970517 -2.003675105504757 0.1540769053652428
rclavicle -3.632875532224315E-16 -1.9253886305589579E-16
rhumerus -22.11976564815822 -10.04002587721363 -70.10807751671184
rradius 52.18471058289205
rwrist -5.081103407602703
rhand -14.477169762792572 -1.0546482399907617
rfingers 7.125019999999908
rthumb 11.684127393706419 -30.450373250217865
lclavicle -8.275907544824165E-16 -4.093108172606846E-16
lhumerus -38.66421783948511 0.2574050885757605 83.20218666448581
lradius 36.81027850255835
lwrist 3.091141290754401
lhand -20.466798085977516 4.022257593888677
lfingers 7.1250199999999015
lthumb 5.803867040281421 33.62188556426959
rfemur -8.942457291228173 2.8079219151210126 16.65393320256771
rtibia 28.323113847592765
rfoot -3.389029759613321 -3.8219222109081574
rtoes 3.1180639410173105
lfemur -2.2630486557101754 -3.702280126845465 -19.127155238329625
ltibia 22.632415334015075
lfoot -16.31198757233498 3.5456857392553394
ltoes -21.672355276466256
